<svg width="207" height="33" viewBox="0 0 207 33" fill="none" xmlns="http://www.w3.org/2000/svg">
<path d="M60.7812 5.80001H51.166V0.144043H77.2914V5.80001H67.7071V32.4602H60.7812V5.80001Z" fill="white"/>
<path d="M77.954 15.0757C77.954 12.3454 77.954 10.119 77.8975 8.15484H84.4172C84.5149 8.8027 84.5921 11.0394 84.5921 12.4225C85.6204 9.78992 88.1142 7.6458 92.3047 7.63037V14.0576C87.3943 13.9393 84.5921 15.3276 84.5921 21.7703V32.4549H77.954V15.0757Z" fill="white"/>
<path d="M115.52 26.1768C115.514 28.2757 115.624 30.3733 115.849 32.4601H109.592C109.384 31.6458 109.267 30.8113 109.242 29.9714C108.337 31.4574 106.558 32.9948 102.419 32.9948C96.5262 32.9948 94.125 29.1642 94.125 25.4158C94.125 20.1095 98.2847 17.3432 105.673 17.3432H109.021V15.8007C109.021 14.0216 108.399 12.3557 105.329 12.3557C102.491 12.3557 101.858 13.6103 101.565 15.3739H95.2099C95.5544 11.1525 98.151 7.57897 105.555 7.60982C111.91 7.64581 115.52 10.0727 115.52 15.9087V26.1768ZM109.067 21.4309H106.306C102.192 21.4309 100.825 22.7729 100.825 24.9736C100.825 26.7116 101.889 28.1821 104.306 28.1821C108.491 28.1821 109.093 25.2976 109.093 22.0428L109.067 21.4309Z" fill="white"/>
<path d="M140.591 24.4801C139.779 28.6964 136.889 33 129.727 33C122.189 33 118.379 27.8891 118.379 20.4541C118.379 13.1733 122.734 7.59961 130.066 7.59961C138.211 7.59961 140.458 13.4458 140.591 16.3406H134.072C133.691 14.3199 132.591 12.8082 129.958 12.8082C126.827 12.8082 125.166 15.5797 125.166 20.2433C125.166 25.5187 126.981 27.8634 129.912 27.8634C132.313 27.8634 133.48 26.4083 134.066 24.4904L140.591 24.4801Z" fill="white"/>
<path d="M150.057 18.3869C151.836 16.0062 155.05 12.1551 158.284 8.15475H165.904C165.431 8.72548 158.032 16.7724 157.518 17.41C158.063 18.2892 166.125 31.5139 166.686 32.4805H159.133C158.809 31.8738 153.43 22.3461 153.091 21.7085C153.091 21.7342 150.078 24.6856 150.057 24.7113V32.4805H143.373V0.128418H150.057V18.3869Z" fill="white"/>
<path d="M173.093 21.7498C173.093 24.7783 174.543 27.7862 177.946 27.7862C180.764 27.7862 181.587 26.5265 182.168 25.1331H188.811C187.885 28.321 185.212 33 177.766 33C169.812 33 166.388 27.1486 166.388 20.598C166.388 13.2915 170.121 7.60986 178.013 7.60986C186.322 7.60986 189.089 13.6052 189.089 19.7136C189.101 20.4003 189.072 21.0871 189.001 21.7703L173.093 21.7498ZM182.451 17.6106C182.394 14.7981 181.268 12.4174 177.988 12.4174C174.707 12.4174 173.463 14.7827 173.226 17.6106H182.451Z" fill="white"/>
<path d="M191.844 15.0757C191.844 12.3454 191.844 10.119 191.793 8.15484H198.313C198.41 8.8027 198.488 11.0394 198.488 12.4225C199.516 9.78992 202.01 7.6458 206.2 7.63037V14.0576C201.29 13.9393 198.488 15.3276 198.488 21.7703V32.4549H191.803L191.844 15.0757Z" fill="white"/>
<path d="M47.2991 32.2236H24.1045L27.0045 26.4133L42.6715 26.7064L33.0615 14.253L35.946 8.46851L49.87 27.0509L47.2991 32.2236Z" fill="#FE7912"/>
<path d="M14.207 32.2442L29.6735 0.0771484H35.638L20.2126 32.2442H14.207Z" fill="#FE7912"/>
<path d="M2.54518 0H25.7398L22.845 5.81022L7.17279 5.51199L16.7828 17.9654L13.924 23.7653L0 5.16235L2.54518 0Z" fill="#FE7912"/>
</svg>
